<svg id="Layer_1" data-name="Layer 1" xmlns="http://www.w3.org/2000/svg" viewBox="0 0 1314 47.07"><defs><style>.cls-1{opacity:0.09;}.cls-2{fill:#ffd400;}</style></defs><title>ldn-to-ny</title><g class="cls-1"><path d="M1229.09,23.07a79,79,0,0,1-15.66-1.4c-2.25-.48-4.47-1.06-6.66-1.76-1-.32-2-.66-3-1-.42-.15-4-1.65-2.18-.83-7.73-3.39-15.06-7.54-23-10.39C1158.21.4,1132.85.79,1112.8,8.81c-4.2,1.67-8.28,3.58-12.35,5.54-1.72.83-3.43,1.67-5.16,2.46.25-.11-3.24,1.42-1.79.81.63-.26-2.56,1-3.11,1.17-10,3.48-20.08,4.22-30.62,3.64a72.26,72.26,0,0,1-24.84-6.31c-7.73-3.67-15.32-7.69-23.56-10.14C989.56-.49,965,1.4,944.26,10.47c-3.5,1.53-6.91,3.26-10.37,4.9-.86.41-1.74.81-2.61,1.21-.43.2-2.73,1.17-.92.43a72.69,72.69,0,0,1-7.14,2.49c-10.29,3-21.51,3.38-32.2,2-9.18-1.15-15.73-4-22.65-7.38-7.9-3.86-15.87-7.69-24.47-9.69a101.78,101.78,0,0,0-66.29,7c-3.46,1.62-6.86,3.35-10.34,4.92s1.15-.42-1,.41c-1,.38-1.92.74-2.89,1.08a68.24,68.24,0,0,1-7.69,2.22,79.25,79.25,0,0,1-31.3.49c-9.4-1.79-14.21-4.27-22.1-8.13-8.41-4.1-17-7.73-26.28-9.31-22.8-3.9-44.34-.64-65,9.33-1.71.83-3.41,1.67-5.14,2.47-.87.41-1.75.82-2.64,1.21-2,.89,2.64-1-1,.39a71.62,71.62,0,0,1-13.63,3.8,80.31,80.31,0,0,1-31.92-1.17c-8.58-2.19-12.62-4.77-21-8.68a95.26,95.26,0,0,0-29.51-8.72,105.4,105.4,0,0,0-36.92,1.82c-8.73,2.08-16.8,6-24.85,9.9a54.19,54.19,0,0,1-9.22,3.85,61.67,61.67,0,0,1-13.31,3c-10.92,1-22.09.63-32.59-2.7-6.61-2.1-12.51-5.62-20.28-9A93.44,93.44,0,0,0,337.63.75c-11.85-.85-24.33,0-35.75,3.4-8.39,2.52-16.09,6.67-24,10.31-.71.32-1.42.65-2.13.95,2.15-.92-1.57.58-1.6.59q-3,1.13-6.16,2a64.17,64.17,0,0,1-14,2.14c-10.89.53-21.52-.42-31.76-4.27-.76-.29-1.52-.59-2.27-.9,2.12.89-1.38-.66-1.45-.69-1.72-.8-3.43-1.65-5.15-2.49-4.06-2-8.13-3.9-12.32-5.6C190.74,2,179.6.24,168.49,0s-22.63,1-33.17,4.65A130.18,130.18,0,0,0,122.6,10c-1.71.81-3.42,1.65-5.13,2.47-.86.42-1.72.83-2.59,1.23-.38.18-3.87,1.68-2,.91-9.22,3.76-18.33,5.06-28.23,5.12-15.44.08-15.47,24.08,0,24,11.34-.06,22.86-1.41,33.49-5.53,4.23-1.64,8.36-3.53,12.45-5.5,1.54-.74,3.08-1.5,4.62-2.23l2.63-1.21c2.4-1.08-.79.26,1.52-.63,10.13-3.88,20.23-5,31.06-4.59a68.77,68.77,0,0,1,14.49,2q2.9.73,5.71,1.72a41.36,41.36,0,0,1,4.43,1.73c8.08,3.71,15.88,8,24.39,10.73,11,3.49,23.06,4.44,34.55,3.88a93.12,93.12,0,0,0,32.74-7.51c3.36-1.44,6.63-3,9.92-4.63a60.86,60.86,0,0,1,9.73-4.1c10.6-3.5,21.85-4.08,33-3a63.74,63.74,0,0,1,12.29,2.54,52.08,52.08,0,0,1,10,4c8.18,3.94,16.31,8.11,25.15,10.36a103.76,103.76,0,0,0,35.94,2.37,95.82,95.82,0,0,0,30.68-8.53c8.13-3.72,12.25-6.29,20.22-8.44a79.41,79.41,0,0,1,32.5-1.43,68,68,0,0,1,12.63,3.35q1.44.53,2.85,1.11c-1.68-.7.13.09.39.21,2.09.95,4.15,2,6.21,3,8.44,4.14,17,8,26.3,9.8a113.12,113.12,0,0,0,38.15.6c9.48-1.42,18.22-4.81,26.84-8.92,8.16-3.89,12.47-6.28,21.73-8.2a79.2,79.2,0,0,1,32.05.27c9.19,2.05,13.27,4.48,21.49,8.43a102.7,102.7,0,0,0,65.88,8.11c8.94-1.85,17.24-5.67,25.41-9.63q2.58-1.25,5.18-2.45c.43-.2,2.74-1.16.93-.43.75-.3,1.51-.6,2.27-.88a69.91,69.91,0,0,1,13.19-3.51,79.29,79.29,0,0,1,33.19,1.86c7.66,2.19,12.4,5.17,20.57,8.88A100.46,100.46,0,0,0,928.3,43c8.55-2.3,16.42-6.38,24.38-10.13a50,50,0,0,1,8.9-3.5,62.88,62.88,0,0,1,14.69-2.78c10.81-.71,21.54,0,31.81,3.53a56.53,56.53,0,0,1,8.59,3.72c4.39,2.13,8.75,4.26,13.26,6.14,20,8.33,45,9.18,65.64,2.36,8.06-2.67,15.49-6.75,23.22-10.21.81-.36,1.59-.7,3.84-1.49q3.12-1.09,6.32-1.89a70.73,70.73,0,0,1,16.45-1.91c10.08-.13,19.67,1.14,29.08,4.84,3.65,1.43-2-.94,1.51.65l2.1,1c1.72.82,3.42,1.67,5.13,2.5,4.44,2.18,8.94,4.26,13.57,6,10.27,3.86,21.39,5.14,32.3,5.26,15.45.17,15.46-23.83,0-24Z"/></g><circle class="cls-2" cx="13" cy="32.03" r="13"/><circle cx="1301" cy="32.03" r="13"/></svg>